<svg xmlns="http://www.w3.org/2000/svg" viewBox="0 0 720 480" role="img" aria-labelledby="title desc">
  <title id="title">奶龙学习插图</title>
  <desc id="desc">黄色小龙坐在书本旁边学习。</desc>
  <rect width="720" height="480" rx="34" fill="#f8fbff"/>
  <circle cx="112" cy="102" r="58" fill="#74d3ff" opacity="0.28"/>
  <circle cx="594" cy="114" r="72" fill="#ff6f61" opacity="0.16"/>
  <rect x="78" y="326" width="570" height="38" rx="19" fill="#111827" opacity="0.08"/>
  <g transform="translate(180 72)">
    <path d="M220 66 L190 10 L258 42 Z" fill="#ffd447"/>
    <path d="M340 42 L406 8 L378 70 Z" fill="#ffd447"/>
    <ellipse cx="305" cy="183" rx="126" ry="145" fill="#ffd84d"/>
    <ellipse cx="305" cy="210" rx="86" ry="70" fill="#fff8db"/>
    <ellipse cx="260" cy="154" rx="16" ry="22" fill="#1f2937"/>
    <ellipse cx="352" cy="154" rx="16" ry="22" fill="#1f2937"/>
    <path d="M285 222 C298 233, 316 233, 329 222" fill="none" stroke="#1f2937" stroke-width="6" stroke-linecap="round"/>
    <path d="M156 251 C105 227, 103 169, 162 156" fill="none" stroke="#ffc83d" stroke-width="34" stroke-linecap="round"/>
    <path d="M454 251 C502 224, 502 171, 446 156" fill="none" stroke="#ffc83d" stroke-width="34" stroke-linecap="round"/>
    <rect x="125" y="286" width="360" height="64" rx="12" fill="#ffffff" stroke="#d1d5db" stroke-width="4"/>
    <path d="M305 286 L305 350" stroke="#d1d5db" stroke-width="4"/>
    <path d="M156 314 L260 314 M350 314 L452 314" stroke="#00a878" stroke-width="7" stroke-linecap="round"/>
  </g>
</svg>
