<svg xmlns="http://www.w3.org/2000/svg" viewBox="0 0 920 560" role="img" aria-labelledby="title desc">
  <title id="title">奶龙素材馆首页插图</title>
  <desc id="desc">一只圆润可爱的黄色小龙在玻璃质感素材馆背景前挥手。</desc>
  <defs>
    <linearGradient id="sky" x1="0" x2="1" y1="0" y2="1">
      <stop offset="0" stop-color="#e9f8ff"/>
      <stop offset="0.5" stop-color="#ffffff"/>
      <stop offset="1" stop-color="#fff4c7"/>
    </linearGradient>
    <linearGradient id="body" x1="0" x2="0" y1="0" y2="1">
      <stop offset="0" stop-color="#ffe96e"/>
      <stop offset="1" stop-color="#ffc83d"/>
    </linearGradient>
    <filter id="shadow" x="-20%" y="-20%" width="140%" height="140%">
      <feDropShadow dx="0" dy="24" stdDeviation="22" flood-color="#263238" flood-opacity="0.18"/>
    </filter>
  </defs>
  <rect width="920" height="560" rx="46" fill="url(#sky)"/>
  <circle cx="760" cy="95" r="54" fill="#ff6f61" opacity="0.22"/>
  <circle cx="175" cy="430" r="84" fill="#00a878" opacity="0.13"/>
  <circle cx="220" cy="120" r="48" fill="#74d3ff" opacity="0.24"/>
  <g fill="none" stroke="#111827" stroke-width="4" opacity="0.08">
    <path d="M52 160 C210 88, 305 214, 458 145 S724 112, 864 208"/>
    <path d="M74 420 C225 355, 340 454, 507 385 S742 333, 858 410"/>
  </g>
  <g filter="url(#shadow)">
    <ellipse cx="468" cy="478" rx="205" ry="42" fill="#1f2937" opacity="0.12"/>
    <path d="M272 324 C220 260, 262 204, 329 226 C360 235, 370 272, 355 307 Z" fill="#ffe15c"/>
    <path d="M630 322 C690 261, 652 202, 581 222 C550 231, 537 269, 552 306 Z" fill="#ffe15c"/>
    <path d="M310 210 C325 124, 392 82, 464 82 C548 82, 616 135, 624 224 C632 315, 582 421, 467 431 C348 441, 293 332, 310 210 Z" fill="url(#body)"/>
    <path d="M361 122 L334 59 L404 96 Z" fill="#ffd447" stroke="#f5b935" stroke-width="5" stroke-linejoin="round"/>
    <path d="M533 96 L604 57 L575 125 Z" fill="#ffd447" stroke="#f5b935" stroke-width="5" stroke-linejoin="round"/>
    <ellipse cx="467" cy="279" rx="112" ry="92" fill="#fff9df"/>
    <ellipse cx="407" cy="224" rx="20" ry="27" fill="#263238"/>
    <ellipse cx="526" cy="224" rx="20" ry="27" fill="#263238"/>
    <circle cx="399" cy="214" r="7" fill="#fff"/>
    <circle cx="518" cy="214" r="7" fill="#fff"/>
    <ellipse cx="466" cy="262" rx="18" ry="12" fill="#f59e0b"/>
    <path d="M435 298 C454 316, 482 316, 501 298" fill="none" stroke="#263238" stroke-width="8" stroke-linecap="round"/>
    <circle cx="366" cy="265" r="17" fill="#ff8a80" opacity="0.78"/>
    <circle cx="565" cy="265" r="17" fill="#ff8a80" opacity="0.78"/>
    <path d="M327 352 C294 373, 298 410, 336 418 C366 424, 392 401, 386 367" fill="#ffd447" stroke="#f5b935" stroke-width="5" stroke-linecap="round"/>
    <path d="M604 352 C636 376, 629 411, 592 418 C562 424, 538 400, 545 367" fill="#ffd447" stroke="#f5b935" stroke-width="5" stroke-linecap="round"/>
    <path d="M420 425 C399 473, 350 477, 333 443 C361 451, 388 438, 410 407 Z" fill="#ffd447"/>
    <path d="M511 423 C537 471, 584 472, 601 438 C573 448, 545 435, 523 405 Z" fill="#ffd447"/>
  </g>
  <g font-family="Arial, sans-serif" font-weight="700">
    <text x="88" y="92" font-size="34" fill="#111827">Nailong Material</text>
    <text x="88" y="132" font-size="18" fill="#4b5563">把头像、壁纸和表情装进一个透明素材馆</text>
  </g>
</svg>
