<svg xmlns="http://www.w3.org/2000/svg" viewBox="0 0 720 480" role="img" aria-labelledby="title desc">
  <title id="title">奶龙展览插图</title>
  <desc id="desc">黄色小龙站在照片墙前展示灵感。</desc>
  <rect width="720" height="480" rx="34" fill="#f7f9fb"/>
  <rect x="88" y="76" width="156" height="116" rx="18" fill="#ffffff" stroke="#dfe4ea" stroke-width="4"/>
  <rect x="474" y="74" width="150" height="126" rx="18" fill="#ffffff" stroke="#dfe4ea" stroke-width="4"/>
  <rect x="444" y="264" width="170" height="112" rx="18" fill="#ffffff" stroke="#dfe4ea" stroke-width="4"/>
  <circle cx="166" cy="134" r="33" fill="#74d3ff" opacity="0.65"/>
  <path d="M492 170 L535 120 L565 150 L591 112 L614 170 Z" fill="#00a878" opacity="0.64"/>
  <path d="M466 352 L504 306 L538 336 L564 292 L594 352 Z" fill="#ff6f61" opacity="0.56"/>
  <g transform="translate(208 88)">
    <ellipse cx="170" cy="314" rx="142" ry="24" fill="#111827" opacity="0.08"/>
    <path d="M78 155 C88 76, 148 34, 212 42 C286 50, 328 104, 318 183 C309 260, 252 322, 169 315 C90 308, 67 231, 78 155 Z" fill="#ffd84d"/>
    <path d="M122 70 L95 16 L159 47 Z" fill="#ffd447"/>
    <path d="M261 50 L322 18 L296 76 Z" fill="#ffd447"/>
    <ellipse cx="189" cy="205" rx="82" ry="66" fill="#fff8db"/>
    <ellipse cx="153" cy="158" rx="14" ry="20" fill="#1f2937"/>
    <ellipse cx="228" cy="158" rx="14" ry="20" fill="#1f2937"/>
    <path d="M172 226 C185 238, 202 238, 216 226" fill="none" stroke="#1f2937" stroke-width="6" stroke-linecap="round"/>
    <path d="M44 211 C11 190, 22 145, 61 139" fill="none" stroke="#ffc83d" stroke-width="27" stroke-linecap="round"/>
    <path d="M344 210 C375 187, 364 145, 326 138" fill="none" stroke="#ffc83d" stroke-width="27" stroke-linecap="round"/>
  </g>
</svg>
